<?xml version="1.0" encoding="utf-8"?>
<!-- Generator: Adobe Illustrator 16.0.0, SVG Export Plug-In . SVG Version: 6.00 Build 0)  -->
<!DOCTYPE svg PUBLIC "-//W3C//DTD SVG 1.1//EN" "http://www.w3.org/Graphics/SVG/1.1/DTD/svg11.dtd">
<svg version="1.1" id="Capa_1" xmlns="http://www.w3.org/2000/svg" xmlns:xlink="http://www.w3.org/1999/xlink" x="0px" y="0px"
	 width="32px" height="32px" viewBox="0 0 32 32" enable-background="new 0 0 32 32" xml:space="preserve">
<path d="M26.639,0H5.361c-1.686,0-3.04,1.367-3.04,3.04v21.277c0,1.672,1.354,3.04,3.04,3.04h6.079l4.559,4.56l4.56-4.56h6.08
	c1.67,0,3.039-1.368,3.039-3.04V3.04C29.678,1.367,28.309,0,26.639,0z M15.999,5.015c2.266,0,4.104,1.839,4.104,4.104
	s-1.839,4.104-4.104,4.104c-2.264,0-4.103-1.84-4.103-4.104S13.735,5.015,15.999,5.015z M25.119,21.277H6.882v-1.368
	c0-3.041,6.079-4.711,9.117-4.711c3.041,0,9.12,1.671,9.12,4.711V21.277z"/>
</svg>
