<?xml version="1.0" encoding="utf-8"?>
<!-- Generator: Adobe Illustrator 16.0.0, SVG Export Plug-In . SVG Version: 6.00 Build 0)  -->
<!DOCTYPE svg PUBLIC "-//W3C//DTD SVG 1.1//EN" "http://www.w3.org/Graphics/SVG/1.1/DTD/svg11.dtd">
<svg version="1.1" id="Capa_1" xmlns="http://www.w3.org/2000/svg" xmlns:xlink="http://www.w3.org/1999/xlink" x="0px" y="0px"
	 width="32px" height="32px" viewBox="0 0 32 32" enable-background="new 0 0 32 32" xml:space="preserve">
<g>
	<path d="M13.858,17.413c0,4.857,0,9.691,0,14.552c-0.109,0-0.205,0-0.302,0c-3.252,0-6.506,0-9.759,0
		c-0.597,0-0.861-0.237-0.861-0.774c0-4.502,0-9.004,0.001-13.509c0-0.086,0.007-0.171,0.012-0.269
		C6.59,17.413,10.213,17.413,13.858,17.413z"/>
	<path d="M18.145,31.965c0-4.872,0-9.704,0-14.552c3.636,0,7.259,0,10.921,0c0,0.098,0,0.192,0,0.284c0,4.486,0,8.97,0,13.457
		c0,0.588-0.251,0.811-0.909,0.811c-3.224,0-6.447,0-9.67,0C18.38,31.965,18.273,31.965,18.145,31.965z"/>
	<path d="M29.484,7.365c-1.903-0.001-3.803,0-5.706,0c-0.119,0-0.235,0-0.295,0c0.586-0.198,1.216-0.361,1.804-0.622
		c0.802-0.354,1.355-0.967,1.606-1.827c0.453-1.559-0.338-3.38-1.821-4.17c-0.965-0.511-2-0.626-3.07-0.517
		c-1.414,0.146-2.621,0.748-3.665,1.689c-0.673,0.604-1.335,1.223-2,1.834c0.042,0.051-0.003,0-0.041-0.056
		c-1.229-1.827-2.942-2.955-5.073-3.462C10.036-0.05,8.846-0.134,7.677,0.317C5.523,1.146,4.751,4.103,6.253,5.774
		C6.933,6.531,7.841,6.881,8.8,7.118c0.283,0.07,0.572,0.122,0.858,0.183C9.656,7.314,9.656,7.325,9.651,7.337
		c-0.093,0-0.188,0-0.282,0c-2.277,0-4.553,0-6.831,0c-0.636,0-0.872,0.24-0.872,0.878c-0.001,1.795-0.001,3.59,0,5.382
		c0,0.621,0.241,0.865,0.853,0.865c3.677,0,7.354,0,11.031,0c0.103,0,0.205,0,0.329,0c0-2.351,0-4.653,0-6.967
		c1.424,0,2.826,0,4.26,0c0,2.328,0,4.638,0,6.967c0.116,0,0.205,0,0.292,0c3.687,0,7.374,0,11.061,0
		c0.591,0,0.842-0.25,0.842-0.848c0.003-1.803,0-3.607,0-5.41C30.334,7.614,30.08,7.365,29.484,7.365z M9.471,5.106
		c-0.39-0.08-0.781-0.204-1.146-0.367c-0.604-0.272-0.791-0.63-0.728-1.237c0.07-0.667,0.401-1.078,1-1.24
		c0.796-0.215,1.579-0.09,2.356,0.113c1.604,0.418,2.825,1.345,3.686,2.754c0.024,0.042,0.05,0.085,0.073,0.127
		c0.008,0.016,0.008,0.035,0.019,0.096C12.959,5.313,11.202,5.468,9.471,5.106z M18.043,5.38c-0.016,0-0.033-0.018-0.084-0.046
		c0.747-0.883,1.502-1.733,2.461-2.352c0.977-0.632,2.055-0.842,3.19-0.522c0.762,0.212,1.147,0.729,1.223,1.49
		c0.043,0.435-0.124,0.761-0.51,0.899c-0.516,0.184-1.053,0.383-1.587,0.412C21.174,5.344,19.608,5.347,18.043,5.38z"/>
</g>
</svg>
